<?xml version="1.0" encoding="utf-8"?>
<!-- Generator: Adobe Illustrator 19.2.1, SVG Export Plug-In . SVG Version: 6.00 Build 0)  -->
<svg version="1.1" id="layer" xmlns="http://www.w3.org/2000/svg" xmlns:xlink="http://www.w3.org/1999/xlink" x="0px" y="0px"
	 viewBox="0 0 652 652" style="enable-background:new 0 0 652 652;" xml:space="preserve">
<style type="text/css">
	.st0{clip-path:url(#SVGID_2_);fill:url(#SVGID_3_);}
	.st1{opacity:0.3;}
	.st2{clip-path:url(#SVGID_5_);fill:url(#SVGID_6_);}
	.st3{fill:#404041;}
	.st4{fill:#F79837;}
</style>
<g>
	<g>
		<defs>
			<path id="SVGID_1_" d="M199.5,412.7l-0.2-0.5l-0.5-1l-11.7-31.5c11.1,5.1,21.4,11.8,30.7,20.1l0,0c1.2,0.9,2.2,2.2,3,3.7
				c0.9,1.7,1.4,3.5,1.4,5.5c0,6.4-5.2,11.6-11.6,11.6C205.5,420.6,201.1,417.4,199.5,412.7 M103.3,229.6c1.5-4.1,4.9-6.9,8.7-7
				c0,0,0.1,0,0.1,0c3.8,0.2,7.2,2.9,8.7,7l48.3,132.6c-10.7-2.7-21.7-4.1-32.9-4.1c-23.5,0-46.7,6.2-66.9,18
				c-9.8,5.7-18.8,12.7-26.9,20.6L103.3,229.6z M110.9,212c-7.8,0.6-14.7,6-17.6,14L21,424.5c-1,2.8,0.4,5.8,3.2,6.8
				c0.6,0.2,1.2,0.3,1.8,0.3c1.7,0,3.3-0.8,4.3-2.2c0.2-0.2,0.3-0.4,0.5-0.7c10.7-18,25.8-33.1,43.9-43.6
				c18.6-10.8,39.9-16.6,61.6-16.6c12.9,0,25.6,2,37.6,5.9l15.3,41.1l0.5,0.9c3.2,8.8,11.5,14.7,20.9,14.7c12.3,0,22.2-10,22.2-22.2
				c0-3.6-0.9-7.3-2.6-10.5c-0.7-1.2-1.4-2.3-2.2-3.4c-0.3-0.5-0.6-1-1-1.4c-13.1-12.2-28.4-21.5-44.9-27.6l-1.1-2.8l-0.1,0
				L130.8,226c-2.9-7.9-9.7-13.3-17.6-14c-0.3,0-0.6-0.1-0.9-0.1c-0.1,0-0.2,0-0.2,0c-0.1,0-0.2,0-0.2,0
				C111.5,211.9,111.2,212,110.9,212"/>
		</defs>
		<clipPath id="SVGID_2_">
			<use xlink:href="#SVGID_1_"  style="overflow:visible;"/>
		</clipPath>
		
			<linearGradient id="SVGID_3_" gradientUnits="userSpaceOnUse" x1="-4.938" y1="743.0203" x2="1.9792" y2="743.0203" gradientTransform="matrix(30.658 0 0 -30.658 172.0803 23101.3418)">
			<stop  offset="0" style="stop-color:#FFDD15"/>
			<stop  offset="3.427713e-002" style="stop-color:#FED217"/>
			<stop  offset="0.1663" style="stop-color:#FAAD1C"/>
			<stop  offset="0.3049" style="stop-color:#F68F20"/>
			<stop  offset="0.45" style="stop-color:#F37824"/>
			<stop  offset="0.6045" style="stop-color:#F16726"/>
			<stop  offset="0.7747" style="stop-color:#F05D28"/>
			<stop  offset="0.991" style="stop-color:#F05A28"/>
			<stop  offset="1" style="stop-color:#F05A28"/>
		</linearGradient>
		<rect x="20" y="211.9" class="st0" width="212.8" height="219.7"/>
	</g>
	<g>
		<g class="st1">
			<g>
				<g>
					<defs>
						<path id="SVGID_4_" d="M187.3,380.3c11.1,5.1,21.4,11.8,30.7,20l0,0c1.2,1,2.2,2.2,3,3.7c0.9,1.7,1.4,3.5,1.4,5.5H233
							c0-3.6-0.9-7.3-2.6-10.5c-0.6-1.2-1.4-2.3-2.2-3.4c-0.3-0.5-0.6-1-1-1.4c-13.1-12.2-28.4-21.5-44.9-27.6L187.3,380.3z
							 M69.5,376.7c-9.8,5.7-18.8,12.7-26.9,20.6l-12.2,32.8c0.2-0.2,0.3-0.4,0.5-0.7c10.7-18,25.9-33.1,43.9-43.6
							c18.6-10.8,39.9-16.6,61.6-16.6c12.1,0,25.1,1.9,37.6,5.9l-4.7-12.4c-10.7-2.7-21.7-4.1-32.9-4.1
							C112.9,358.7,89.8,364.9,69.5,376.7"/>
					</defs>
					<clipPath id="SVGID_5_">
						<use xlink:href="#SVGID_4_"  style="overflow:visible;"/>
					</clipPath>
					
						<linearGradient id="SVGID_6_" gradientUnits="userSpaceOnUse" x1="-5.4042" y1="741.473" x2="1.5131" y2="741.473" gradientTransform="matrix(29.2748 0 0 -29.2748 188.7152 22100.8477)">
						<stop  offset="0" style="stop-color:#FFFFFF"/>
						<stop  offset="0.3285" style="stop-color:#FFFFFF"/>
						<stop  offset="0.3745" style="stop-color:#FBFBFB"/>
						<stop  offset="0.4233" style="stop-color:#EEEEEE"/>
						<stop  offset="0.4735" style="stop-color:#D9D9D9"/>
						<stop  offset="0.5246" style="stop-color:#BCBBBB"/>
						<stop  offset="0.5764" style="stop-color:#969595"/>
						<stop  offset="0.6288" style="stop-color:#686666"/>
						<stop  offset="0.6808" style="stop-color:#332F30"/>
						<stop  offset="0.6948" style="stop-color:#231F20"/>
						<stop  offset="0.9301" style="stop-color:#FFFFFF"/>
						<stop  offset="1" style="stop-color:#FFFFFF"/>
					</linearGradient>
					<rect x="30.5" y="358.7" class="st2" width="202.5" height="71.4"/>
				</g>
			</g>
		</g>
	</g>
	<path class="st3" d="M226,263.1h3.3l21.4,46.3H247l-5.8-12.9H214l-5.9,12.9h-3.5L226,263.1z M239.7,293.5l-12.1-26.6l-12.1,26.6
		H239.7z"/>
	<g>
		<path class="st3" d="M270.7,310.2c-2.8,0-5.3-0.4-7.6-1.3c-2.3-0.9-4.3-2.1-6-3.8c-1.7-1.7-3-3.8-3.9-6.2
			c-0.9-2.5-1.4-5.3-1.4-8.5v-26.9h3.4V290c0,5.5,1.4,9.7,4.1,12.6c2.7,3,6.6,4.4,11.5,4.4c4.7,0,8.4-1.4,11.2-4.2
			c2.8-2.8,4.1-7,4.1-12.5v-26.9h3.4v26.5c0,3.3-0.5,6.2-1.4,8.7c-0.9,2.5-2.2,4.6-3.9,6.3c-1.7,1.7-3.6,3-5.9,3.9
			C276,309.7,273.5,310.2,270.7,310.2"/>
		<polygon class="st3" points="309.6,266.5 293.6,266.5 293.6,263.4 329.1,263.4 329.1,266.5 313,266.5 313,309.4 309.6,309.4 		"/>
		<path class="st3" d="M353.3,310.2c-3.5,0-6.6-0.7-9.5-1.9c-2.8-1.3-5.3-3-7.3-5.2c-2-2.2-3.6-4.7-4.7-7.5c-1.1-2.8-1.6-5.8-1.6-9
			v-0.1c0-3.2,0.6-6.2,1.7-9c1.1-2.9,2.7-5.4,4.7-7.6c2-2.2,4.5-3.9,7.3-5.2c2.9-1.3,6-1.9,9.5-1.9c3.5,0,6.7,0.7,9.5,1.9
			c2.8,1.3,5.3,3,7.3,5.2c2,2.2,3.6,4.7,4.7,7.5c1.1,2.8,1.6,5.8,1.6,9c0,0,0,0.1,0,0.1c0,3.2-0.6,6.2-1.7,9
			c-1.1,2.9-2.7,5.4-4.7,7.6c-2,2.2-4.4,3.9-7.3,5.2C360,309.6,356.8,310.2,353.3,310.2 M353.4,307.1c2.8,0,5.5-0.5,7.9-1.6
			c2.4-1.1,4.4-2.5,6.2-4.4c1.7-1.9,3.1-4,4-6.5c1-2.5,1.4-5.2,1.4-8v-0.1c0-2.8-0.5-5.5-1.5-8c-1-2.5-2.3-4.7-4.1-6.6
			c-1.7-1.9-3.8-3.3-6.2-4.4c-2.4-1.1-5-1.6-7.9-1.6s-5.5,0.5-7.9,1.6c-2.4,1.1-4.4,2.5-6.2,4.4c-1.7,1.9-3.1,4-4,6.5
			c-1,2.5-1.4,5.2-1.4,8v0.1c0,2.8,0.5,5.5,1.5,8c1,2.5,2.3,4.7,4.1,6.6c1.7,1.9,3.8,3.3,6.2,4.4
			C347.9,306.6,350.6,307.1,353.4,307.1"/>
		<polygon class="st3" points="382.5,263.4 385.7,263.4 404.2,290.6 422.7,263.4 425.9,263.4 425.9,309.4 422.5,309.4 422.5,269.5 
			404.2,296 404,296 385.7,269.5 385.7,309.4 382.5,309.4 		"/>
		<path class="st3" d="M454,263.1h3.3l21.4,46.3H475l-5.8-12.9H442l-5.9,12.9h-3.5L454,263.1z M467.7,293.5l-12.1-26.6l-12.1,26.6
			H467.7z"/>
		<polygon class="st3" points="490,266.5 474,266.5 474,263.4 509.4,263.4 509.4,266.5 493.4,266.5 493.4,309.4 490,309.4 		"/>
		<rect x="516" y="263.4" class="st3" width="3.4" height="46"/>
		<path class="st3" d="M551.3,310.2c-3.5,0-6.6-0.7-9.5-1.9c-2.8-1.3-5.3-3-7.3-5.2c-2-2.2-3.6-4.7-4.7-7.5c-1.1-2.8-1.6-5.8-1.6-9
			v-0.1c0-3.2,0.6-6.2,1.7-9c1.1-2.9,2.7-5.4,4.7-7.6c2-2.2,4.5-3.9,7.3-5.2c2.9-1.3,6-1.9,9.5-1.9c3.5,0,6.7,0.7,9.5,1.9
			c2.8,1.3,5.2,3,7.3,5.2c2,2.2,3.6,4.7,4.7,7.5c1.1,2.8,1.6,5.8,1.6,9c0,0,0,0.1,0,0.1c0,3.2-0.6,6.2-1.7,9
			c-1.1,2.9-2.7,5.4-4.7,7.6c-2,2.2-4.4,3.9-7.3,5.2C558,309.6,554.8,310.2,551.3,310.2 M551.5,307.1c2.8,0,5.5-0.5,7.9-1.6
			c2.4-1.1,4.4-2.5,6.2-4.4c1.7-1.9,3.1-4,4-6.5c1-2.5,1.4-5.2,1.4-8v-0.1c0-2.8-0.5-5.5-1.5-8c-1-2.5-2.3-4.7-4.1-6.6
			c-1.7-1.9-3.8-3.3-6.2-4.4c-2.4-1.1-5-1.6-7.9-1.6c-2.8,0-5.5,0.5-7.9,1.6c-2.4,1.1-4.4,2.5-6.2,4.4c-1.7,1.9-3.1,4-4,6.5
			c-1,2.5-1.4,5.2-1.4,8v0.1c0,2.8,0.5,5.5,1.5,8c1,2.5,2.3,4.7,4.1,6.6c1.7,1.9,3.8,3.3,6.2,4.4C546,306.6,548.6,307.1,551.5,307.1
			"/>
		<polygon class="st3" points="581,263.4 584.2,263.4 616,303.4 616,263.4 619.2,263.4 619.2,309.4 616.6,309.4 584.2,268.6 
			584.2,309.4 581,309.4 		"/>
		<path class="st3" d="M245.6,319.4h9.6l20.2,47.5h-10.8l-4.3-10.6h-19.9l-4.3,10.6h-10.6L245.6,319.4z M256.5,347.2l-6.3-15.3
			l-6.3,15.3H256.5z"/>
		<polygon class="st3" points="278.3,319.7 287.8,319.7 309.9,348.8 309.9,319.7 320.2,319.7 320.2,366.9 311.4,366.9 288.5,336.9 
			288.5,366.9 278.3,366.9 		"/>
		<polygon class="st3" points="341.7,348.3 323.6,319.7 335.7,319.7 347,338.7 358.4,319.7 370.2,319.7 352.1,348.1 352.1,366.9 
			341.7,366.9 		"/>
		<polygon class="st3" points="370,319.7 381.1,319.7 390.9,351.7 401.5,319.6 410.4,319.6 421,351.7 430.7,319.7 441.6,319.7 
			425.5,367.2 416.4,367.2 405.8,336.4 395.1,367.2 386.1,367.2 		"/>
		<polygon class="st3" points="447.6,319.7 457.9,319.7 457.9,338.4 477.1,338.4 477.1,319.7 487.4,319.7 487.4,366.9 477.1,366.9 
			477.1,348 457.9,348 457.9,366.9 447.6,366.9 		"/>
		<polygon class="st3" points="495.7,319.7 531.2,319.7 531.2,329 506,329 506,338.5 528.2,338.5 528.2,347.8 506,347.8 506,357.7 
			531.6,357.7 531.6,366.9 495.7,366.9 		"/>
		<path class="st3" d="M539.2,319.7h21.6c6,0,10.6,1.6,13.7,4.8c2.7,2.7,4,6.3,4,10.8v0.1c0,3.8-0.9,6.9-2.8,9.3
			c-1.9,2.4-4.3,4.2-7.3,5.3l11.5,16.8h-12.1l-10.1-15.1h-0.1h-8v15.1h-10.4V319.7z M560.1,342.7c2.6,0,4.5-0.6,5.9-1.8
			c1.4-1.2,2-2.8,2-4.9v-0.1c0-2.3-0.7-4-2.2-5.1c-1.4-1.1-3.4-1.7-6-1.7h-10.3v13.6H560.1z"/>
		<polygon class="st3" points="584.9,319.7 620.4,319.7 620.4,329 595.1,329 595.1,338.5 617.3,338.5 617.3,347.8 595.1,347.8 
			595.1,357.7 620.7,357.7 620.7,366.9 584.9,366.9 		"/>
		<path class="st4" d="M404.6,385.2c4.8,0,7.3,2.5,7.3,2.5l-1.8,2.6c0,0-2.1-1.9-5.2-1.9c-4.4,0-6.7,3-6.7,6.7c0,4.3,2.9,7,6.6,7
			c3,0,4.9-2,4.9-2v-2.3h-3v-3.1h6.2v10.3h-3v-0.9c0-0.4,0-0.8,0-0.8h-0.1c0,0-2,2.1-5.7,2.1c-5.2,0-9.6-4-9.6-10.2
			C394.5,389.6,398.8,385.2,404.6,385.2"/>
		<path class="st4" d="M423,390.7c4.3,0,7.8,3.1,7.8,7.4c0,4.3-3.5,7.4-7.7,7.4c-4.3,0-7.8-3-7.8-7.4
			C415.2,393.8,418.7,390.7,423,390.7 M423,402.5c2.3,0,4.2-1.8,4.2-4.4c0-2.6-1.9-4.4-4.2-4.4c-2.3,0-4.2,1.8-4.2,4.4
			C418.8,400.7,420.7,402.5,423,402.5"/>
		<path class="st4" d="M440.3,385.5h3.5v6.1c0,0.7-0.1,1.2-0.1,1.2h0.1c0,0,1.2-2,4.2-2c3.8,0,6.2,3,6.2,7.4c0,4.5-2.7,7.4-6.5,7.4
			c-2.9,0-4.2-2.1-4.2-2.1h-0.1c0,0,0.1,0.4,0.1,1v0.8h-3.3V385.5z M447.2,402.5c1.9,0,3.5-1.6,3.5-4.4c0-2.7-1.4-4.4-3.5-4.4
			c-1.8,0-3.5,1.3-3.5,4.5C443.7,400.3,444.9,402.5,447.2,402.5"/>
		<path class="st4" d="M463.3,390.7c4.1,0,6.3,3,6.3,6.7c0,0.4-0.1,1.4-0.1,1.4h-9.7c0.2,2.5,2.1,3.7,4.2,3.7c2.3,0,4.1-1.5,4.1-1.5
			l1.3,2.5c0,0-2.2,2-5.7,2c-4.7,0-7.6-3.4-7.6-7.4C456.2,393.7,459.1,390.7,463.3,390.7 M466,396.3c-0.1-1.9-1.2-2.9-2.8-2.9
			c-1.8,0-3,1.1-3.4,2.9H466z"/>
		<path class="st4" d="M484.5,407.9c2.2,0,4-0.9,4-3.4v-0.8c0-0.3,0.1-0.7,0.1-0.7h-0.1c-0.8,1.2-2,1.9-3.9,1.9
			c-4,0-6.3-3.3-6.3-7.1c0-3.9,2.2-7,6.2-7c3.1,0,4.2,1.8,4.2,1.8h0.1c0,0,0-0.2,0-0.4V391h3.3v13.2c0,4.8-3.8,6.7-7.4,6.7
			c-1.8,0-3.7-0.5-5-1.2l1.1-2.7C480.6,407,482.4,407.9,484.5,407.9 M488.6,397.7c0-3.2-1.6-4.1-3.5-4.1c-2.1,0-3.3,1.5-3.3,3.9
			c0,2.5,1.3,4.3,3.5,4.3C487,401.9,488.6,400.9,488.6,397.7"/>
		<path class="st4" d="M495.9,391h3.4v2.4c0,0.5,0,1,0,1h0c0.6-2,2.3-3.6,4.5-3.6c0.3,0,0.6,0.1,0.6,0.1v3.5c0,0-0.4-0.1-0.8-0.1
			c-1.5,0-3.2,0.9-3.8,3c-0.2,0.7-0.3,1.5-0.3,2.3v5.6h-3.5V391z"/>
		<path class="st4" d="M512.9,390.7c4.1,0,6.3,3,6.3,6.7c0,0.4-0.1,1.4-0.1,1.4h-9.7c0.2,2.5,2.1,3.7,4.2,3.7c2.3,0,4.1-1.5,4.1-1.5
			l1.3,2.5c0,0-2.2,2-5.7,2c-4.7,0-7.6-3.4-7.6-7.4C505.8,393.7,508.7,390.7,512.9,390.7 M515.6,396.3c-0.1-1.9-1.2-2.9-2.8-2.9
			c-1.8,0-3,1.1-3.4,2.9H515.6z"/>
		<path class="st4" d="M529.2,396.3h0.5v-0.2c0-1.9-1.2-2.5-2.7-2.5c-2,0-3.9,1.4-3.9,1.4l-1.3-2.5c0,0,2.2-1.7,5.5-1.7
			c3.7,0,5.9,2,5.9,5.6v8.8H530V404c0-0.6,0.1-1,0.1-1H530c0,0-1.1,2.5-4.3,2.5c-2.5,0-4.8-1.6-4.8-4.4
			C520.9,396.6,526.9,396.3,529.2,396.3 M526.6,402.7c1.9,0,3.2-2,3.2-3.7v-0.3h-0.6c-1.8,0-4.7,0.2-4.7,2.2
			C524.4,401.8,525.1,402.7,526.6,402.7"/>
		<path class="st4" d="M537.4,394h-1.8v-2.8h1.9v-4.1h3.4v4.1h3.2v2.8h-3.2v5.5c0,2.3,1.8,2.7,2.8,2.7c0.4,0,0.6-0.1,0.6-0.1v3.1
			c0,0-0.4,0.1-1.1,0.1c-2,0-5.9-0.6-5.9-5.3V394z"/>
		<rect x="547" y="401.6" class="st4" width="3.5" height="3.5"/>
	</g>
</g>
</svg>
