<svg width="24" height="24" xmlns="http://www.w3.org/2000/svg">
 <title/>

 <g>
  <title>background</title>
  <rect fill="none" id="canvas_background" height="402" width="582" y="-1" x="-1"/>
 </g>
 <g>
  <title>Layer 1</title>
  <path fill="#ffffff" id="svg_1" d="m23.992,11.806a5.091,5.091 0 0 0 -0.018,-0.279l0,-0.002l0,-0.002a5.98,5.98 0 0 0 -0.99,-2.814a6.217,6.217 0 0 0 -0.867,-1.039a6.289,6.289 0 0 0 -1.64,-1.13a7.016,7.016 0 0 0 -3.051,-0.668a7.35,7.35 0 0 0 -2.546,0.444a6.323,6.323 0 0 0 -1.822,0.996a6.45,6.45 0 0 0 -0.333,0.29l-0.085,0.085l-0.117,0.125l0.001,0l-0.056,0.055l-0.026,0.028l-0.141,0.147c-0.104,0.117 -0.202,0.234 -0.296,0.349l0,-0.002l-0.004,-0.003c-0.192,0.233 -0.37,0.476 -0.5,0.693c-0.089,0.14 -0.176,0.283 -0.259,0.427l-1.147,2.319l0.002,0.001l-0.06,0.118l-0.126,0.256c-0.251,0.509 -0.521,1.017 -0.821,1.435c-0.672,0.737 -1.431,1.098 -2.406,1.098c-0.068,0 -0.139,-0.003 -0.209,-0.008c-0.588,-0.023 -1.092,-0.162 -1.539,-0.427a2.576,2.576 0 0 1 -0.994,-1.03a2.659,2.659 0 0 1 -0.326,-1.369l0.002,-0.034c0.031,-0.76 0.321,-1.352 0.904,-1.861c0.142,-0.124 0.291,-0.228 0.446,-0.32c0.021,-0.013 0.044,-0.024 0.065,-0.036c0.434,-0.237 0.927,-0.355 1.492,-0.355l0.176,0.005c0.899,0.034 1.592,0.314 2.145,0.863l1.734,-3.113a6.845,6.845 0 0 0 -1.399,-0.71c-0.019,-0.007 -0.04,-0.016 -0.06,-0.022c-0.062,-0.022 -0.123,-0.045 -0.186,-0.065a7.425,7.425 0 0 0 -1.716,-0.348a5.545,5.545 0 0 1 -0.046,-0.006c-0.091,-0.005 -0.184,-0.016 -0.275,-0.02a9.966,9.966 0 0 0 -0.297,-0.007l-0.055,0a7.005,7.005 0 0 0 -3.028,0.67a6.176,6.176 0 0 0 -2.502,2.166a6.006,6.006 0 0 0 -1.016,3.381c-0.002,1.564 0.568,2.938 1.701,4.093c1.184,1.211 2.721,1.864 4.567,1.941c0.118,0.005 0.235,0.008 0.353,0.008c1.045,0 2.011,-0.186 2.878,-0.558c0.217,-0.093 0.427,-0.201 0.642,-0.322c0.117,-0.067 0.228,-0.139 0.338,-0.215l0.08,-0.055l0.137,-0.093c0.164,-0.118 0.317,-0.246 0.467,-0.381l0.052,-0.05c0.088,-0.083 0.176,-0.168 0.259,-0.255l0.311,-0.352l0.118,-0.148l0.056,-0.081l0.055,-0.079c0.462,-0.776 1.965,-3.601 1.965,-3.601l0,-0.006l0.09,-0.172l0.074,-0.135c0.222,-0.403 0.382,-0.689 0.594,-0.99l0.006,-0.01c0.493,-0.717 1.344,-1.227 2.346,-1.313c1.68,-0.145 3.152,0.959 3.287,2.465c0.135,1.507 -1.117,2.846 -2.798,2.991a3.417,3.417 0 0 1 -1.011,-0.064l-0.009,0.003c-1.232,-0.257 -2.017,-1.155 -2.404,-1.558l-1.617,2.974s0.503,0.506 0.847,0.759c0.346,0.253 0.791,0.501 1.146,0.656a7.151,7.151 0 0 0 2.838,0.589c0.121,0 0.097,0 0.222,-0.005c1.844,-0.077 3.489,-0.784 4.675,-1.995c1.123,-1.15 1.733,-2.463 1.738,-4.018l0,-0.047l-0.011,-0.257z"/>
 </g>
</svg>